# xmcd CD database file
#
# Track frame offsets:
#	150
#	34320
#	64982
#	91460
#	116482
#	148694
#	188463
#	205494
#
# Disc length: 3116 seconds
#
# Revision: 0
# Processed by: cddbd v1.4PL0 Copyright (c) Steve Scherf et al.
# Submitted via: Feurio! 1.63 - http://www.feurio.com
#
DISCID=740c2a08
DTITLE=luther allison - north sea jazz fest the hague,netherlands 7-12-96
DYEAR=1900
DGENRE=Blues
TTITLE0=you gotts move away from the hood
TTITLE1=you don't know
TTITLE2=cherry red wine
TTITLE3=don't want to see you go
TTITLE4=big city
TTITLE5=serious
TTITLE6=your are so beautiful >
TTITLE7=soul fixin' man
EXTD=
EXTT0=
EXTT1=
EXTT2=
EXTT3=
EXTT4=
EXTT5=
EXTT6=
EXTT7=
PLAYORDER=
